<svg xmlns:dc="http://purl.org/dc/elements/1.1/" xmlns:cc="http://creativecommons.org/ns#" xmlns:rdf="http://www.w3.org/1999/02/22-rdf-syntax-ns#" xmlns:svg="http://www.w3.org/2000/svg" xmlns="http://www.w3.org/2000/svg" xmlns:sodipodi="http://sodipodi.sourceforge.net/DTD/sodipodi-0.dtd" xmlns:inkscape="http://www.inkscape.org/namespaces/inkscape" version="1.1" x="0px" y="0px" viewBox="0 0 100 125"><g transform="translate(0,-952.36218)"><path style="text-indent:0;text-transform:none;direction:ltr;block-progression:tb;baseline-shift:baseline;color:#000000;enable-background:accumulate;" d="m 31.247976,967.38192 c -5.4511,0 -10.8943,2.13138 -15.031201,6.34375 -8.2736999,8.42477 -8.2630999,22.03839 0,30.46873 l 31.625001,32.25 a 3.0003,3.0003 0 0 0 4.2812,0 c 10.5535,-10.7459 21.1028,-21.4728 31.6562,-32.2188 8.2738,-8.42469 8.2738,-22.04392 0,-30.46868 -8.2737,-8.42475 -21.8198,-8.42485 -30.0937,0 l -3.6875,3.75 -3.7188,-3.78125 c -4.1369,-4.21237 -9.5801,-6.34375 -15.0312,-6.34375 z m 0,5.9375 c 3.8746,0 7.741,1.52994 10.75,4.59375 l 5.875,5.96875 a 3.0003,3.0003 0 0 0 4.2812,0 l 5.8126,-5.9375 c 6.0179,-6.12771 15.5134,-6.12761 21.5312,0 6.0178,6.1276 6.0178,15.9349 0,22.06248 -9.8361,10.0155 -19.6638,20.047 -29.5,30.0625 l -29.5,-30.09376 c -6.014301,-6.13605 -6.017701,-15.93488 0,-22.06247 3.009,-3.06381 6.8754,-4.59375 10.75,-4.59375 z" fill="#000000" fill-opacity="1" stroke="none" marker="none" visibility="visible" display="inline" overflow="visible"/></g></svg>
