<svg xmlns="http://www.w3.org/2000/svg" xmlns:xlink="http://www.w3.org/1999/xlink" version="1.1" x="0px" y="0px" viewBox="0 0 100 125" style="enable-background:new 0 0 100 100;" xml:space="preserve"><g><g><path d="M83.2,51.2c0,0.9,0,1.8,0,2.7c0,13.6,0,19.8,0,33.4c0,3.4-0.2,3.6-3.6,3.6c-19.1,0-38.1,0-57.2,0c-3.5,0-3.6-0.2-3.6-3.6    c0-13.6,0-19.8,0-33.4c0-0.9,0-1.8,0-3.2c-2.6,1.8-4.4,3.9-6.2,5.8C11,58.1,9.9,58,8.7,56.3c-0.4-0.6-0.9-1.2-1.5-1.7    c-1.1-1-0.9-1.8,0.1-2.8c14-14,28.1-28,42.1-42.1c1.2-1.2,2-1.2,3.2,0c14,14.1,28,28.1,42.1,42.1c1,1,1.1,1.6,0.1,2.8    c-3.2,4-3.2,4-6.8,0.4c-1.4-1.4-2.6-2.9-4-4.3C83.7,50.9,83.4,51,83.2,51.2z M50.8,83.7c7.6,0,15.1,0,22.7,0    c1.8,0,2.8-0.4,2.8-2.5c-0.1-14.4,0-21.3,0-35.6c0-1.3-0.5-2.3-1.4-3.1C67.5,35,60,27.5,52.6,20c-1.3-1.3-2.1-1.2-3.3,0    c-7.4,7.5-14.9,15-22.3,22.4c-1,1-1.4,2-1.4,3.4c0,14.2,0.1,20.9,0,35.1c0,2.2,0.8,2.8,2.9,2.7C35.8,83.7,43.3,83.7,50.8,83.7z"/></g></g></svg>
