<svg xmlns="http://www.w3.org/2000/svg" xmlns:xlink="http://www.w3.org/1999/xlink" version="1.1" x="0px" y="0px" viewBox="0 0 100 125" enable-background="new 0 0 100 100" xml:space="preserve"><path fill-rule="evenodd" clip-rule="evenodd" d="M35.538,40.608c0.467-0.3,0.967-0.383,1.5-0.25  c5.834,1.467,10.234,3.983,13.201,7.55c-0.301-7.033-2.385-12.25-6.25-15.65c-6.367-5.567-17.717-6.567-34.051-3  c3.934,16.3,9.801,26.083,17.6,29.35c6,2.566,13.383,1.25,22.15-3.95c-2.133-5.2-6.666-8.667-13.6-10.4  c-0.533-0.133-0.951-0.45-1.25-0.95c-0.268-0.466-0.334-0.966-0.201-1.5C34.772,41.275,35.071,40.875,35.538,40.608z M5.839,26.708  c0.266-0.467,0.666-0.767,1.199-0.9c18.701-4.4,31.9-3.25,39.6,3.45c6.102,5.333,8.551,14,7.352,26l-0.051,0.55v19  c0,0.567-0.184,1.034-0.551,1.4c-0.398,0.4-0.883,0.6-1.449,0.6c-0.533,0-1-0.2-1.4-0.6c-0.4-0.367-0.6-0.833-0.6-1.4v-15.7  c-9.199,5-17.184,6.066-23.949,3.2c-9.434-3.966-16.25-15.35-20.451-34.15C5.438,27.625,5.538,27.142,5.839,26.708z M94.438,39.458  c-3.666,13.733-9.15,22.117-16.449,25.15c-4.967,2.066-10.65,1.617-17.051-1.35v11.55c0,0.567-0.184,1.034-0.551,1.4  c-0.398,0.4-0.883,0.6-1.449,0.6c-0.533,0-1-0.2-1.4-0.6c-0.4-0.367-0.6-0.833-0.6-1.4v-15.95c-0.4-8.133,1.699-14.2,6.301-18.2  c5.898-5.1,15.783-6.333,29.648-3.7c0.533,0.1,0.967,0.4,1.301,0.9C94.489,38.392,94.571,38.925,94.438,39.458z M73.839,50.608  c-0.268,0.5-0.668,0.816-1.201,0.95c-5.033,1.5-8.816,3.95-11.35,7.35c5.834,3.1,10.9,3.767,15.201,2  c5.699-2.367,10.199-9.167,13.5-20.4c-11.4-1.9-19.451-0.833-24.15,3.2c-2.533,2.133-4.1,5.3-4.701,9.5  c2.768-2.434,6.217-4.267,10.352-5.5c0.533-0.133,1.033-0.083,1.5,0.15c0.5,0.267,0.832,0.667,1,1.2  C74.155,49.592,74.104,50.108,73.839,50.608z"/></svg>
